<?xml version="1.0" encoding="iso-8859-1"?>
<!-- Generator: Adobe Illustrator 19.0.0, SVG Export Plug-In . SVG Version: 6.00 Build 0)  -->
<svg version="1.1" id="Layer_1" xmlns="http://www.w3.org/2000/svg" xmlns:xlink="http://www.w3.org/1999/xlink" x="0px" y="0px"
	 viewBox="0 0 496.158 496.158" style="enable-background:new 0 0 496.158 496.158;" xml:space="preserve">
<path style="fill:#EA4949;" d="M496.158,248.085c0-137.022-111.07-248.082-248.076-248.082C111.07,0.003,0,111.063,0,248.085
	c0,137.001,111.07,248.07,248.082,248.07C385.088,496.155,496.158,385.086,496.158,248.085z"/>
<path style="fill:#46729E;" d="M248.082,496.155c70.204,0,133.589-29.171,178.719-76.042c-2.755-15.131-5.644-28.901-8.284-37.38
	c-8.494-27.279-81.197-49.333-170.825-49.333S86.133,355.454,77.64,382.733c-2.64,8.479-5.529,22.247-8.283,37.377
	C114.486,466.983,177.874,496.155,248.082,496.155z"/>
<path style="fill:#BABABA;" d="M312.079,338.808l-12.526-8.062l-51.474-15.334l-51.473,15.333l-12.477,8.036
	c4.052-0.727,12.47,17.63,12.47,17.63h102.959c0,0,8.444-18.261,12.51-17.526L312.079,338.808z"/>
<path style="fill:#E2A379;" d="M286.969,282.118h-77.78c12.136,36.588,0.978,53.294,0.978,53.294l26.912,6.063h22l26.912-6.062
	C285.991,335.412,274.833,318.706,286.969,282.118z"/>
<path style="fill:#F4B382;" d="M336.332,175.175c0-92.429-39.513-113.596-88.252-113.596c-48.741,0-88.254,21.167-88.254,113.596
	c0,31.266,6.19,55.765,15.462,74.673c20.396,41.598,55.7,56.136,72.792,56.136s52.396-14.538,72.79-56.136
	C330.141,230.94,336.332,206.441,336.332,175.175z"/>
<path style="fill:#E5A173;" d="M273.245,266.079c0,2.209-11.268,8.25-25.166,8.25s-25.166-6.041-25.166-8.25
	c0-1.36,7.986-5.258,13.354-5.98c3.35-0.451,11.812,2.48,11.812,2.48s8.346-2.939,11.668-2.5
	C265.195,260.8,273.245,266.079,273.245,266.079z"/>
<path style="fill:#D89364;" d="M273.245,266.079c0,2.209-11.268,10.75-25.166,10.75s-25.166-8.541-25.166-10.75
	c0,0,10.252,1.103,25.166,1.103C262.993,267.182,273.245,266.079,273.245,266.079z"/>
<path style="fill:#4C230C;" d="M336.309,171.798c-0.958-89.562-40.09-110.219-88.229-110.219
	c-48.741,0-88.254,21.167-88.254,113.596h0.029c-0.018,1.025-0.029,2.049-0.029,3.071c0,0,8.753-1.917,8.753,2.583l-0.041,27.625
	l3.875-1.875c-0.25-23,7.666-31.75,7.666-31.75c9-14.25-4.6-38.557,9.963-44.853c18.922-8.181,13.37,9.77,57.037,9.77
	s36.449-18.442,55.261-10.667c15.625,6.459,3.739,26.5,13.838,45.75c0,0,7.943,8.75,7.693,31.75l3.875,1.875l-0.068-27.625
	c0-4.5,8.753-2.583,8.753-2.583C336.431,176.102,336.39,173.949,336.309,171.798z"/>
<g>
	<ellipse style="fill:#3A3A3A;" cx="248.079" cy="287.539" rx="20.867" ry="14.684"/>
	<path style="fill:#3A3A3A;" d="M355.379,205.197c0,15.509-12.571,28.081-28.08,28.081v-56.161
		C342.808,177.117,355.379,189.689,355.379,205.197z"/>
	<path style="fill:#3A3A3A;" d="M140.779,205.197c0,15.509,12.571,28.081,28.08,28.081v-56.161
		C153.35,177.117,140.779,189.689,140.779,205.197z"/>
	<path style="fill:#3A3A3A;" d="M334.126,185.875h-6.184c0-44.037-35.826-79.863-79.863-79.863s-79.863,35.827-79.863,79.863h-6.184
		c0-47.446,38.601-86.046,86.047-86.046S334.126,138.43,334.126,185.875z"/>
	<path style="fill:#3A3A3A;" d="M248.079,302.579v-6.183c44.32,0,80.379-36.058,80.379-80.378h6.183
		C334.641,263.748,295.809,302.579,248.079,302.579z"/>
</g>
<path style="fill:#E2A379;" d="M247.745,333.4c-13.045,0-25.594,0.834-37.578,2.013c0,0-21.598,58.167,37.915,58.167
	c59.509,0,37.921-58.313,37.921-58.313C273.817,334.05,260.997,333.4,247.745,333.4z"/>
<path style="fill:#FFFFFF;" d="M255.759,496.024c14.574-30.564,30.152-133.945,30.152-133.945s-13.415,20.5-38.123,20.5
	c-24.709,0-37.543-20.5-37.543-20.5s15.357,103.355,30.186,133.946c2.543,0.077,5.09,0.13,7.651,0.13
	C250.651,496.155,253.208,496.102,255.759,496.024z"/>
<g>
	<path style="fill:#C7C8C9;" d="M210.167,335.412c-5.189,0.676-21.139,2.49-26.037,3.369l-0.051,0.027l8,55.271l16.334-3.667
		l-12,14.667l40.662,90.835c2.93,0.128,5.877,0.191,8.832,0.217c-7.471-32.222-31.864-137.401-32.006-137.543L210.167,335.412z"/>
	<path style="fill:#C7C8C9;" d="M299.746,405.079l-12-14.667l16.333,3.667l7.989-55.193c-4.927-0.89-20.858-2.787-26.077-3.473
		l-3.734,23.176c-0.142,0.142-24.535,105.321-32.006,137.543c2.956-0.025,5.902-0.089,8.832-0.217L299.746,405.079z"/>
</g>
<g>
</g>
<g>
</g>
<g>
</g>
<g>
</g>
<g>
</g>
<g>
</g>
<g>
</g>
<g>
</g>
<g>
</g>
<g>
</g>
<g>
</g>
<g>
</g>
<g>
</g>
<g>
</g>
<g>
</g>
</svg>
